<svg xmlns="http://www.w3.org/2000/svg" width="512" height="512" viewBox="0 0 512 512"><rect width="512" height="512" rx="116" fill="#1c1917"/><circle cx="256" cy="256" r="168.0" fill="none" stroke="#f59e0b" stroke-width="26.0"/><line x1="256.0" y1="204.0" x2="256.0" y2="109.0" stroke="#fbbf24" stroke-width="16.0" stroke-linecap="round"/><line x1="282.0" y1="211.0" x2="329.5" y2="128.7" stroke="#f59e0b" stroke-width="12.0" stroke-linecap="round"/><line x1="301.0" y1="230.0" x2="383.3" y2="182.5" stroke="#f59e0b" stroke-width="12.0" stroke-linecap="round"/><line x1="308.0" y1="256.0" x2="403.0" y2="256.0" stroke="#f59e0b" stroke-width="12.0" stroke-linecap="round"/><line x1="301.0" y1="282.0" x2="383.3" y2="329.5" stroke="#f59e0b" stroke-width="12.0" stroke-linecap="round"/><line x1="282.0" y1="301.0" x2="329.5" y2="383.3" stroke="#f59e0b" stroke-width="12.0" stroke-linecap="round"/><line x1="256.0" y1="308.0" x2="256.0" y2="403.0" stroke="#f59e0b" stroke-width="12.0" stroke-linecap="round"/><line x1="230.0" y1="301.0" x2="182.5" y2="383.3" stroke="#f59e0b" stroke-width="12.0" stroke-linecap="round"/><line x1="211.0" y1="282.0" x2="128.7" y2="329.5" stroke="#f59e0b" stroke-width="12.0" stroke-linecap="round"/><line x1="204.0" y1="256.0" x2="109.0" y2="256.0" stroke="#f59e0b" stroke-width="12.0" stroke-linecap="round"/><line x1="211.0" y1="230.0" x2="128.7" y2="182.5" stroke="#f59e0b" stroke-width="12.0" stroke-linecap="round"/><line x1="230.0" y1="211.0" x2="182.5" y2="128.7" stroke="#f59e0b" stroke-width="12.0" stroke-linecap="round"/><circle cx="256" cy="256" r="46.0" fill="#1c1917" stroke="#f59e0b" stroke-width="20.0"/><circle cx="256.0" cy="109.0" r="12.0" fill="#fbbf24"/></svg>